<svg width="40" height="40" viewBox="0 0 40 40" fill="none" xmlns="http://www.w3.org/2000/svg">
<path d="M23.9169 3.33398H16.0836C14.3503 3.33398 12.9336 4.73398 12.9336 6.46732V8.03398C12.9336 9.76732 14.3336 11.1673 16.0669 11.1673H23.9169C25.6503 11.1673 27.0503 9.76732 27.0503 8.03398V6.46732C27.0669 4.73398 25.6503 3.33398 23.9169 3.33398Z" fill="#CA3B4C"/>
<path d="M28.7324 8.03379C28.7324 10.6838 26.5658 12.8505 23.9158 12.8505H16.0824C13.4324 12.8505 11.2658 10.6838 11.2658 8.03379C11.2658 7.10045 10.2658 6.51712 9.43242 6.95045C7.08242 8.20045 5.48242 10.6838 5.48242 13.5338V29.2171C5.48242 33.3171 8.83242 36.6671 12.9324 36.6671H27.0658C31.1658 36.6671 34.5158 33.3171 34.5158 29.2171V13.5338C34.5158 10.6838 32.9158 8.20045 30.5658 6.95045C29.7324 6.51712 28.7324 7.10045 28.7324 8.03379ZM25.5658 21.2171L18.8991 27.8838C18.6491 28.1338 18.3324 28.2505 18.0158 28.2505C17.6991 28.2505 17.3824 28.1338 17.1324 27.8838L14.6324 25.3838C14.1491 24.9005 14.1491 24.1005 14.6324 23.6171C15.1158 23.1338 15.9158 23.1338 16.3991 23.6171L18.0158 25.2338L23.7991 19.4505C24.2824 18.9671 25.0824 18.9671 25.5658 19.4505C26.0491 19.9338 26.0491 20.7338 25.5658 21.2171Z" fill="#CA3B4C"/>
</svg>
