<svg width="24" height="24" viewBox="0 0 24 24" fill="none" xmlns="http://www.w3.org/2000/svg">
<g id="&#208;&#152;&#208;&#186;&#208;&#190;&#208;&#189;&#208;&#186;&#208;&#184;/&#208;&#157;&#209;&#131;&#208;&#188;&#208;&#184;&#209;&#128;&#208;&#176;&#209;&#134;&#208;&#184;&#209;&#143; &#209;&#129;&#209;&#130;&#209;&#128;&#208;&#176;&#208;&#189;&#208;&#184;&#209;&#134;">
<path id="Vector" d="M14.8297 12.7103L10.5897 16.9503C10.4967 17.044 10.3861 17.1184 10.2643 17.1692C10.1424 17.22 10.0117 17.2461 9.8797 17.2461C9.74769 17.2461 9.61698 17.22 9.49512 17.1692C9.37326 17.1184 9.26266 17.044 9.1697 16.9503C8.98345 16.7629 8.87891 16.5095 8.87891 16.2453C8.87891 15.9811 8.98345 15.7277 9.1697 15.5403L12.7097 12.0003L9.1697 8.4603C8.98345 8.27293 8.87891 8.01948 8.87891 7.75529C8.87891 7.49111 8.98345 7.23766 9.1697 7.05029C9.26314 6.95761 9.37395 6.88429 9.49579 6.83452C9.61763 6.78476 9.74809 6.75953 9.8797 6.7603C10.0113 6.75953 10.1418 6.78476 10.2636 6.83452C10.3854 6.88429 10.4963 6.95761 10.5897 7.05029L14.8297 11.2903C14.9234 11.3833 14.9978 11.4939 15.0486 11.6157C15.0994 11.7376 15.1255 11.8683 15.1255 12.0003C15.1255 12.1323 15.0994 12.263 15.0486 12.3849C14.9978 12.5067 14.9234 12.6173 14.8297 12.7103Z" fill="#858585"/>
</g>
</svg>
