<svg width="24" height="24" viewBox="0 0 24 24" fill="none" xmlns="http://www.w3.org/2000/svg">
<path d="M18.0797 12.4192L11.8997 18.6092C11.0895 19.3293 10.0348 19.7125 8.95139 19.6806C7.86797 19.6487 6.83767 19.2041 6.07124 18.4377C5.30482 17.6712 4.86018 16.6409 4.82829 15.5575C4.7964 14.4741 5.17966 13.4194 5.89967 12.6092L13.8997 4.60924C14.3773 4.15553 15.0109 3.90257 15.6697 3.90257C16.3284 3.90257 16.962 4.15553 17.4397 4.60924C17.905 5.08083 18.1659 5.71671 18.1659 6.37924C18.1659 7.04177 17.905 7.67765 17.4397 8.14924L10.5397 15.0392C10.4714 15.1128 10.3893 15.1721 10.298 15.214C10.2068 15.2558 10.1082 15.2792 10.008 15.2829C9.90767 15.2866 9.80763 15.2705 9.71356 15.2356C9.61948 15.2007 9.53321 15.1475 9.45967 15.0792C9.38613 15.0109 9.32676 14.9288 9.28495 14.8376C9.24314 14.7464 9.21971 14.6478 9.216 14.5475C9.21228 14.4472 9.22836 14.3472 9.2633 14.2531C9.29825 14.159 9.35138 14.0728 9.41967 13.9992L14.5497 8.87924C14.738 8.69093 14.8438 8.43554 14.8438 8.16924C14.8438 7.90293 14.738 7.64754 14.5497 7.45924C14.3614 7.27093 14.106 7.16514 13.8397 7.16514C13.5734 7.16514 13.318 7.27093 13.1297 7.45924L7.99967 12.5992C7.74298 12.8539 7.53924 13.1569 7.4002 13.4908C7.26117 13.8246 7.18959 14.1826 7.18959 14.5442C7.18959 14.9059 7.26117 15.2639 7.4002 15.5977C7.53924 15.9315 7.74298 16.2345 7.99967 16.4892C8.52404 16.9887 9.22048 17.2673 9.94467 17.2673C10.6689 17.2673 11.3653 16.9887 11.8897 16.4892L18.7797 9.58924C19.5746 8.73619 20.0073 7.60791 19.9867 6.4421C19.9662 5.27629 19.4939 4.16398 18.6694 3.3395C17.8449 2.51503 16.7326 2.04275 15.5668 2.02219C14.401 2.00162 13.2727 2.43436 12.4197 3.22924L4.41967 11.2292C3.34087 12.4241 2.7647 13.9891 2.8112 15.5982C2.85771 17.2073 3.5233 18.7365 4.66931 19.867C5.81532 20.9975 7.35335 21.6423 8.96296 21.6669C10.5726 21.6916 12.1296 21.0942 13.3097 19.9992L19.4997 13.8192C19.5929 13.726 19.6669 13.6153 19.7173 13.4935C19.7678 13.3717 19.7938 13.2411 19.7938 13.1092C19.7938 12.9774 19.7678 12.8468 19.7173 12.725C19.6669 12.6032 19.5929 12.4925 19.4997 12.3992C19.4064 12.306 19.2957 12.232 19.1739 12.1816C19.0521 12.1311 18.9215 12.1051 18.7897 12.1051C18.6578 12.1051 18.5272 12.1311 18.4054 12.1816C18.2836 12.232 18.1729 12.306 18.0797 12.3992V12.4192Z" fill="#858585"/>
</svg>
