<svg width="30" height="30" viewBox="0 0 30 30" fill="none" xmlns="http://www.w3.org/2000/svg">
<path d="M21.5501 28.4375H8.4501C4.9501 28.4375 2.72509 26.35 2.52509 22.8625L1.87509 12.55C1.77509 10.9875 2.31259 9.4875 3.38759 8.35C4.45009 7.2125 5.95009 6.5625 7.50009 6.5625C7.90009 6.5625 8.2876 6.325 8.4751 5.95L9.37509 4.1625C10.1126 2.7 11.9626 1.5625 13.5751 1.5625H16.4376C18.0501 1.5625 19.8876 2.7 20.6251 4.15L21.5251 5.975C21.7126 6.325 22.0876 6.5625 22.5001 6.5625C24.0501 6.5625 25.5501 7.2125 26.6126 8.35C27.6876 9.5 28.2251 10.9875 28.1251 12.55L27.4751 22.875C27.2501 26.4125 25.0876 28.4375 21.5501 28.4375ZM13.5751 3.4375C12.6501 3.4375 11.4751 4.1625 11.0501 5L10.1501 6.8C9.62509 7.8125 8.6126 8.4375 7.50009 8.4375C6.45009 8.4375 5.47509 8.8625 4.75009 9.625C4.03759 10.3875 3.67509 11.3875 3.75009 12.425L4.40009 22.75C4.55009 25.275 5.9126 26.5625 8.4501 26.5625H21.5501C24.0751 26.5625 25.4376 25.275 25.6001 22.75L26.2501 12.425C26.3126 11.3875 25.9626 10.3875 25.2501 9.625C24.5251 8.8625 23.5501 8.4375 22.5001 8.4375C21.3876 8.4375 20.3751 7.8125 19.8501 6.825L18.9376 5C18.5251 4.175 17.3501 3.45 16.4251 3.45H13.5751V3.4375Z" fill="white"/>
<path d="M16.875 10.9375H13.125C12.6125 10.9375 12.1875 10.5125 12.1875 10C12.1875 9.4875 12.6125 9.0625 13.125 9.0625H16.875C17.3875 9.0625 17.8125 9.4875 17.8125 10C17.8125 10.5125 17.3875 10.9375 16.875 10.9375Z" fill="white"/>
<path d="M15 23.4375C12.2375 23.4375 10 21.2 10 18.4375C10 15.675 12.2375 13.4375 15 13.4375C17.7625 13.4375 20 15.675 20 18.4375C20 21.2 17.7625 23.4375 15 23.4375ZM15 15.3125C13.275 15.3125 11.875 16.7125 11.875 18.4375C11.875 20.1625 13.275 21.5625 15 21.5625C16.725 21.5625 18.125 20.1625 18.125 18.4375C18.125 16.7125 16.725 15.3125 15 15.3125Z" fill="white"/>
</svg>
