<svg width="30" height="30" viewBox="0 0 30 30" fill="none" xmlns="http://www.w3.org/2000/svg">
<g id="&#208;&#186;&#209;&#128;&#208;&#181;&#209;&#129;&#209;&#130;&#208;&#184;&#208;&#186;">
<g id="vuesax/outline/add">
<g id="add">
<path id="Vector" d="M19.641 20.9664L9.03435 10.3598C8.67196 9.99744 8.67196 9.3964 9.03435 9.03401C9.39675 8.67161 9.99779 8.67161 10.3602 9.03401L20.9668 19.6406C21.3292 20.003 21.3292 20.604 20.9668 20.9664C20.6044 21.3288 20.0033 21.3288 19.641 20.9664Z" fill="white"/>
<path id="Vector_2" d="M9.03322 20.9664C8.67083 20.604 8.67083 20.003 9.03322 19.6406L19.6398 9.03401C20.0022 8.67161 20.6033 8.67161 20.9656 9.03401C21.328 9.3964 21.328 9.99744 20.9656 10.3598L10.359 20.9664C9.99665 21.3288 9.39561 21.3288 9.03322 20.9664Z" fill="white"/>
</g>
</g>
</g>
</svg>
