<svg width="30" height="30" viewBox="0 0 30 30" fill="none" xmlns="http://www.w3.org/2000/svg">
<path d="M25.0508 8.52413L17.8508 3.48663C15.8883 2.11163 12.8758 2.18663 10.9883 3.64913L4.72578 8.53663C3.47578 9.51163 2.48828 11.5116 2.48828 13.0866V21.7116C2.48828 24.8991 5.07578 27.4991 8.26328 27.4991H21.7383C24.9258 27.4991 27.5133 24.9116 27.5133 21.7241V13.2491C27.5133 11.5616 26.4258 9.48663 25.0508 8.52413ZM15.9383 22.4991C15.9383 23.0116 15.5133 23.4366 15.0008 23.4366C14.4883 23.4366 14.0633 23.0116 14.0633 22.4991V18.7491C14.0633 18.2366 14.4883 17.8116 15.0008 17.8116C15.5133 17.8116 15.9383 18.2366 15.9383 18.7491V22.4991Z" fill="#CA3B4C"/>
</svg>
