<svg width="40" height="40" viewBox="0 0 40 40" fill="none" xmlns="http://www.w3.org/2000/svg">
<g id="vuesax/outline/menu">
<g id="menu">
<path id="Vector" d="M35 12.916H5C4.31667 12.916 3.75 12.3493 3.75 11.666C3.75 10.9827 4.31667 10.416 5 10.416H35C35.6833 10.416 36.25 10.9827 36.25 11.666C36.25 12.3493 35.6833 12.916 35 12.916Z" fill="#CA3B4C"/>
<path id="Vector_2" d="M35 21.25H5C4.31667 21.25 3.75 20.6833 3.75 20C3.75 19.3167 4.31667 18.75 5 18.75H35C35.6833 18.75 36.25 19.3167 36.25 20C36.25 20.6833 35.6833 21.25 35 21.25Z" fill="#CA3B4C"/>
<path id="Vector_3" d="M35 29.584H5C4.31667 29.584 3.75 29.0173 3.75 28.334C3.75 27.6507 4.31667 27.084 5 27.084H35C35.6833 27.084 36.25 27.6507 36.25 28.334C36.25 29.0173 35.6833 29.584 35 29.584Z" fill="#CA3B4C"/>
</g>
</g>
</svg>
