<svg width="40" height="40" viewBox="0 0 40 40" fill="none" xmlns="http://www.w3.org/2000/svg">
<path d="M36.6673 13.0164V26.9831C36.6673 32.333 32.334 36.6664 26.984 36.6664H13.0173C7.66732 36.6664 3.33398 32.333 3.33398 26.9831V13.0164C3.33398 8.86638 5.03398 5.84972 8.05065 4.38305C9.15065 3.84972 10.4173 4.68305 10.4173 5.89972V20.6997C10.4173 22.6831 11.184 24.2664 12.5673 25.0664C13.9673 25.8497 15.734 25.6831 17.534 24.5997L19.7007 23.2997C19.834 23.233 20.1673 23.2331 20.2673 23.2831L22.4673 24.5997C23.6673 25.3164 24.7007 25.5497 25.534 25.5497C26.4007 25.5497 27.0673 25.283 27.4673 25.0497C28.8173 24.2664 29.584 22.6831 29.584 20.6997V5.89972C29.584 4.68305 30.8673 3.84972 31.9507 4.38305C34.9673 5.84972 36.6673 8.86638 36.6673 13.0164Z" fill="#CA3B4C"/>
<path d="M25.416 3.33398C26.3327 3.33398 27.0827 4.08398 27.0827 5.00065V20.7007C27.0827 21.7673 26.766 22.5673 26.216 22.884C25.6493 23.2173 24.7493 23.0507 23.7493 22.4507L21.5493 21.134C20.6993 20.6173 19.2993 20.6173 18.4493 21.134L16.2493 22.4507C15.2493 23.0507 14.3493 23.2007 13.7827 22.884C13.2327 22.5673 12.916 21.7673 12.916 20.7007V5.00065C12.916 4.08398 13.666 3.33398 14.5827 3.33398H25.416Z" fill="#CA3B4C"/>
</svg>
