<svg width="30" height="30" viewBox="0 0 30 30" fill="none" xmlns="http://www.w3.org/2000/svg">
<path d="M22.025 13.4375C21.4875 13.4375 21.0625 13 21.0625 12.475C21.0625 12.0125 20.6 11.05 19.825 10.2125C19.0625 9.4 18.225 8.925 17.525 8.925C16.9875 8.925 16.5625 8.4875 16.5625 7.9625C16.5625 7.4375 17 7 17.525 7C18.775 7 20.0875 7.675 21.2375 8.8875C22.3125 10.025 23 11.4375 23 12.4625C23 13 22.5625 13.4375 22.025 13.4375Z" fill="#CA3B4C"/>
<path d="M26.5367 13.4375C25.9992 13.4375 25.5742 13 25.5742 12.475C25.5742 8.0375 21.9617 4.4375 17.5367 4.4375C16.9992 4.4375 16.5742 4 16.5742 3.475C16.5742 2.95 16.9992 2.5 17.5242 2.5C23.0242 2.5 27.4992 6.975 27.4992 12.475C27.4992 13 27.0617 13.4375 26.5367 13.4375Z" fill="#CA3B4C"/>
<path d="M13.8125 18.6875L11.5 21C11.0125 21.4875 10.2375 21.4875 9.7375 21.0125C9.6 20.875 9.4625 20.75 9.325 20.6125C8.0375 19.3125 6.875 17.95 5.8375 16.525C4.8125 15.1 3.9875 13.675 3.3875 12.2625C2.8 10.8375 2.5 9.475 2.5 8.175C2.5 7.325 2.65 6.5125 2.95 5.7625C3.25 5 3.725 4.3 4.3875 3.675C5.1875 2.8875 6.0625 2.5 6.9875 2.5C7.3375 2.5 7.6875 2.575 8 2.725C8.325 2.875 8.6125 3.1 8.8375 3.425L11.7375 7.5125C11.9625 7.825 12.125 8.1125 12.2375 8.3875C12.35 8.65 12.4125 8.9125 12.4125 9.15C12.4125 9.45 12.325 9.75 12.15 10.0375C11.9875 10.325 11.75 10.625 11.45 10.925L10.5 11.9125C10.3625 12.05 10.3 12.2125 10.3 12.4125C10.3 12.5125 10.3125 12.6 10.3375 12.7C10.375 12.8 10.4125 12.875 10.4375 12.95C10.6625 13.3625 11.05 13.9 11.6 14.55C12.1625 15.2 12.7625 15.8625 13.4125 16.525C13.5375 16.65 13.675 16.775 13.8 16.9C14.3 17.3875 14.3125 18.1875 13.8125 18.6875Z" fill="#CA3B4C"/>
<path d="M27.4625 22.9133C27.4625 23.2633 27.4 23.6258 27.275 23.9758C27.2375 24.0758 27.2 24.1758 27.15 24.2758C26.9375 24.7258 26.6625 25.1508 26.3 25.5508C25.6875 26.2258 25.0125 26.7133 24.25 27.0258C24.2375 27.0258 24.225 27.0383 24.2125 27.0383C23.475 27.3383 22.675 27.5008 21.8125 27.5008C20.5375 27.5008 19.175 27.2008 17.7375 26.5883C16.3 25.9758 14.8625 25.1508 13.4375 24.1133C12.95 23.7508 12.4625 23.3883 12 23.0008L16.0875 18.9133C16.4375 19.1758 16.75 19.3758 17.0125 19.5133C17.075 19.5383 17.15 19.5758 17.2375 19.6133C17.3375 19.6508 17.4375 19.6633 17.55 19.6633C17.7625 19.6633 17.925 19.5883 18.0625 19.4508L19.0125 18.5133C19.325 18.2008 19.625 17.9633 19.9125 17.8133C20.2 17.6383 20.4875 17.5508 20.8 17.5508C21.0375 17.5508 21.2875 17.6008 21.5625 17.7133C21.8375 17.8258 22.125 17.9883 22.4375 18.2008L26.575 21.1383C26.9 21.3633 27.125 21.6258 27.2625 21.9383C27.3875 22.2508 27.4625 22.5633 27.4625 22.9133Z" fill="#CA3B4C"/>
</svg>
